<svg xmlns="http://www.w3.org/2000/svg" fill="none" aria-hidden="true" viewBox="0 0 24 24" role="img"><path vector-effect="non-scaling-stroke" stroke="var(--icon-color, #001e00)" stroke-linecap="round" stroke-linejoin="round" stroke-width="1.5" d="M9.62 18.5H5.84A2.788 2.788 0 013 15.66V8.1a2.79 2.79 0 012.84-2.83h11.34A2.78 2.78 0 0120 8.1V10m-4.53.75V8.86m-7.56 1.89V8.86M3 10h17"></path><path vector-effect="non-scaling-stroke" stroke="var(--icon-color, #001e00)" stroke-linecap="round" stroke-linejoin="round" stroke-width="1.5" d="M12.83 3H10a.89.89 0 00-.94 1v1.27h4.72V4a.89.89 0 00-.95-1v0zM17 21a4 4 0 10.1-7.998A4 4 0 0017 21z"></path><path vector-effect="non-scaling-stroke" stroke="var(--icon-color, #001e00)" stroke-linecap="round" stroke-linejoin="round" stroke-width="1.5" d="M19 17h-2v-2"></path></svg>