<svg xmlns="http://www.w3.org/2000/svg" fill="none" aria-hidden="true" viewBox="0 0 24 24" role="img"><path vector-effect="non-scaling-stroke" stroke="var(--icon-color, #001e00)" stroke-linecap="round" stroke-linejoin="round" stroke-miterlimit="10" stroke-width="1.5" d="M11.852 20.705A8.816 8.816 0 013 11.853 8.816 8.816 0 0111.852 3"></path><path fill="var(--icon-color, #001e00)" vector-effect="non-scaling-stroke" stroke="var(--icon-color, #001e00)" stroke-miterlimit="10" d="M15.393 19.918c-.098-.197 0-.59.197-.688.197-.099.492 0 .689.196.098.197 0 .492-.197.689-.098 0-.197.098-.197.098a.54.54 0 01-.492-.295zm3.148-2.361c-.197-.196-.295-.491-.098-.688.196-.197.491-.295.688-.099.197.197.295.492.099.689-.099.098-.197.197-.394.197-.098 0-.197 0-.295-.099zm1.869-3.442c-.295-.099-.394-.295-.394-.59.099-.296.296-.394.59-.394.296.098.394.295.394.59-.098.197-.295.394-.59.394zm-.492-4.328c-.098-.295.098-.492.393-.59.296-.099.492.098.59.393 0 .295-.098.492-.393.59h-.098c-.197 0-.394-.098-.492-.393zm-1.672-3.246c-.197-.197-.098-.492.098-.689.197-.196.492-.098.689.099.197.197.098.492-.099.688-.098.099-.196.099-.295.099-.098 0-.295-.099-.393-.197zm-2.853-2.262c-.196-.099-.393-.394-.196-.689.098-.197.393-.393.688-.197.295.099.394.394.197.689a.751.751 0 01-.492.197h-.197z"></path><path vector-effect="non-scaling-stroke" stroke="var(--icon-color, #001e00)" stroke-linecap="round" stroke-linejoin="round" stroke-miterlimit="10" stroke-width="1.5" d="M11.852 17.754V5.951"></path></svg>